<?xml version="1.0"?>
<!-- Generated by SVGo and Plotinum VG -->
<svg width="460.8pt" height="345.6pt" viewBox="0 0 460.8 345.6"
	xmlns="http://www.w3.org/2000/svg"
	xmlns:xlink="http://www.w3.org/1999/xlink">
<g transform="scale(1, -1) translate(0, -345.6)">
<path d="M0,0L460.8,0L460.8,345.6L0,345.6Z" style="fill:#FFFFFF" />
<text x="206.32" y="-3.9023" transform="scale(1, -1)"
	style="font-family:Liberation Serif;font-variant:normal;font-weight:normal;font-style:normal;font-size:12px">sepal length (cm)</text>
<text x="56.977" y="-16.541" transform="scale(1, -1)"
	style="font-family:Liberation Serif;font-variant:normal;font-weight:normal;font-style:normal;font-size:10px">4.5</text>
<text x="230.17" y="-16.541" transform="scale(1, -1)"
	style="font-family:Liberation Serif;font-variant:normal;font-weight:normal;font-style:normal;font-size:10px">6.0</text>
<text x="403.36" y="-16.541" transform="scale(1, -1)"
	style="font-family:Liberation Serif;font-variant:normal;font-weight:normal;font-style:normal;font-size:10px">7.5</text>
<path d="M63.227,24.363L63.227,32.363" style="fill:none;stroke:#000000;stroke-width:0.5" />
<path d="M236.42,24.363L236.42,32.363" style="fill:none;stroke:#000000;stroke-width:0.5" />
<path d="M409.61,24.363L409.61,32.363" style="fill:none;stroke:#000000;stroke-width:0.5" />
<path d="M149.82,28.363L149.82,32.363" style="fill:none;stroke:#000000;stroke-width:0.5" />
<path d="M323.02,28.363L323.02,32.363" style="fill:none;stroke:#000000;stroke-width:0.5" />
<path d="M40.135,32.363L455.8,32.363" style="fill:none;stroke:#000000;stroke-width:0.5" />
<g transform="rotate(90)">
<text x="152.58" y="9.3867" transform="scale(1, -1)"
	style="font-family:Liberation Serif;font-variant:normal;font-weight:normal;font-style:normal;font-size:12px">sepal width (cm)</text>
</g>
<text x="15.885" y="-40.924" transform="scale(1, -1)"
	style="font-family:Liberation Serif;font-variant:normal;font-weight:normal;font-style:normal;font-size:10px">2</text>
<text x="15.885" y="-165.67" transform="scale(1, -1)"
	style="font-family:Liberation Serif;font-variant:normal;font-weight:normal;font-style:normal;font-size:10px">3</text>
<text x="15.885" y="-290.42" transform="scale(1, -1)"
	style="font-family:Liberation Serif;font-variant:normal;font-weight:normal;font-style:normal;font-size:10px">4</text>
<path d="M23.385,43.209L31.385,43.209" style="fill:none;stroke:#000000;stroke-width:0.5" />
<path d="M23.385,167.96L31.385,167.96" style="fill:none;stroke:#000000;stroke-width:0.5" />
<path d="M23.385,292.7L31.385,292.7" style="fill:none;stroke:#000000;stroke-width:0.5" />
<path d="M27.385,68.158L31.385,68.158" style="fill:none;stroke:#000000;stroke-width:0.5" />
<path d="M27.385,93.107L31.385,93.107" style="fill:none;stroke:#000000;stroke-width:0.5" />
<path d="M27.385,118.06L31.385,118.06" style="fill:none;stroke:#000000;stroke-width:0.5" />
<path d="M27.385,143.01L31.385,143.01" style="fill:none;stroke:#000000;stroke-width:0.5" />
<path d="M27.385,192.9L31.385,192.9" style="fill:none;stroke:#000000;stroke-width:0.5" />
<path d="M27.385,217.85L31.385,217.85" style="fill:none;stroke:#000000;stroke-width:0.5" />
<path d="M27.385,242.8L31.385,242.8" style="fill:none;stroke:#000000;stroke-width:0.5" />
<path d="M27.385,267.75L31.385,267.75" style="fill:none;stroke:#000000;stroke-width:0.5" />
<path d="M27.385,317.65L31.385,317.65" style="fill:none;stroke:#000000;stroke-width:0.5" />
<path d="M27.385,342.6L31.385,342.6" style="fill:none;stroke:#000000;stroke-width:0.5" />
<path d="M31.385,43.209L31.385,342.6" style="fill:none;stroke:#000000;stroke-width:0.5" />
<path d="M63.227,43.209L63.227,342.6" style="fill:none;stroke:#808080;stroke-width:0.25" />
<path d="M236.42,43.209L236.42,342.6" style="fill:none;stroke:#808080;stroke-width:0.25" />
<path d="M409.61,43.209L409.61,342.6" style="fill:none;stroke:#808080;stroke-width:0.25" />
<path d="M40.135,43.209L455.8,43.209" style="fill:none;stroke:#808080;stroke-width:0.25" />
<path d="M40.135,167.96L455.8,167.96" style="fill:none;stroke:#808080;stroke-width:0.25" />
<path d="M40.135,292.7L455.8,292.7" style="fill:none;stroke:#808080;stroke-width:0.25" />
<path d="M135.5,230.33A3,3 0 1 1 129.5,230.33A3,3 0 1 1 135.5,230.33Z" style="fill:none;stroke:#FF0000;stroke-width:0.5" />
<path d="M112.41,167.96A3,3 0 1 1 106.41,167.96A3,3 0 1 1 112.41,167.96Z" style="fill:none;stroke:#FF0000;stroke-width:0.5" />
<path d="M89.32,192.9A3,3 0 1 1 83.32,192.9A3,3 0 1 1 89.32,192.9Z" style="fill:none;stroke:#FF0000;stroke-width:0.5" />
<path d="M77.774,180.43A3,3 0 1 1 71.774,180.43A3,3 0 1 1 77.774,180.43Z" style="fill:none;stroke:#FF0000;stroke-width:0.5" />
<path d="M123.96,242.8A3,3 0 1 1 117.96,242.8A3,3 0 1 1 123.96,242.8Z" style="fill:none;stroke:#FF0000;stroke-width:0.5" />
<path d="M170.14,280.23A3,3 0 1 1 164.14,280.23A3,3 0 1 1 170.14,280.23Z" style="fill:none;stroke:#FF0000;stroke-width:0.5" />
<path d="M77.774,217.85A3,3 0 1 1 71.774,217.85A3,3 0 1 1 77.774,217.85Z" style="fill:none;stroke:#FF0000;stroke-width:0.5" />
<path d="M123.96,217.85A3,3 0 1 1 117.96,217.85A3,3 0 1 1 123.96,217.85Z" style="fill:none;stroke:#FF0000;stroke-width:0.5" />
<path d="M54.681,155.48A3,3 0 1 1 48.681,155.48A3,3 0 1 1 54.681,155.48Z" style="fill:none;stroke:#FF0000;stroke-width:0.5" />
<path d="M112.41,180.43A3,3 0 1 1 106.41,180.43A3,3 0 1 1 112.41,180.43Z" style="fill:none;stroke:#FF0000;stroke-width:0.5" />
<path d="M170.14,255.28A3,3 0 1 1 164.14,255.28A3,3 0 1 1 170.14,255.28Z" style="fill:none;stroke:#FF0000;stroke-width:0.5" />
<path d="M100.87,217.85A3,3 0 1 1 94.866,217.85A3,3 0 1 1 100.87,217.85Z" style="fill:none;stroke:#FF0000;stroke-width:0.5" />
<path d="M100.87,167.96A3,3 0 1 1 94.866,167.96A3,3 0 1 1 100.87,167.96Z" style="fill:none;stroke:#FF0000;stroke-width:0.5" />
<path d="M43.135,167.96A3,3 0 1 1 37.135,167.96A3,3 0 1 1 43.135,167.96Z" style="fill:none;stroke:#FF0000;stroke-width:0.5" />
<path d="M216.33,292.7A3,3 0 1 1 210.33,292.7A3,3 0 1 1 216.33,292.7Z" style="fill:none;stroke:#FF0000;stroke-width:0.5" />
<path d="M204.78,342.6A3,3 0 1 1 198.78,342.6A3,3 0 1 1 204.78,342.6Z" style="fill:none;stroke:#FF0000;stroke-width:0.5" />
<path d="M170.14,280.23A3,3 0 1 1 164.14,280.23A3,3 0 1 1 170.14,280.23Z" style="fill:none;stroke:#FF0000;stroke-width:0.5" />
<path d="M135.5,230.33A3,3 0 1 1 129.5,230.33A3,3 0 1 1 135.5,230.33Z" style="fill:none;stroke:#FF0000;stroke-width:0.5" />
<path d="M204.78,267.75A3,3 0 1 1 198.78,267.75A3,3 0 1 1 204.78,267.75Z" style="fill:none;stroke:#FF0000;stroke-width:0.5" />
<path d="M135.5,267.75A3,3 0 1 1 129.5,267.75A3,3 0 1 1 135.5,267.75Z" style="fill:none;stroke:#FF0000;stroke-width:0.5" />
<path d="M170.14,217.85A3,3 0 1 1 164.14,217.85A3,3 0 1 1 170.14,217.85Z" style="fill:none;stroke:#FF0000;stroke-width:0.5" />
<path d="M135.5,255.28A3,3 0 1 1 129.5,255.28A3,3 0 1 1 135.5,255.28Z" style="fill:none;stroke:#FF0000;stroke-width:0.5" />
<path d="M77.774,242.8A3,3 0 1 1 71.774,242.8A3,3 0 1 1 77.774,242.8Z" style="fill:none;stroke:#FF0000;stroke-width:0.5" />
<path d="M135.5,205.38A3,3 0 1 1 129.5,205.38A3,3 0 1 1 135.5,205.38Z" style="fill:none;stroke:#FF0000;stroke-width:0.5" />
<path d="M100.87,217.85A3,3 0 1 1 94.866,217.85A3,3 0 1 1 100.87,217.85Z" style="fill:none;stroke:#FF0000;stroke-width:0.5" />
<path d="M123.96,167.96A3,3 0 1 1 117.96,167.96A3,3 0 1 1 123.96,167.96Z" style="fill:none;stroke:#FF0000;stroke-width:0.5" />
<path d="M123.96,217.85A3,3 0 1 1 117.96,217.85A3,3 0 1 1 123.96,217.85Z" style="fill:none;stroke:#FF0000;stroke-width:0.5" />
<path d="M147.05,230.33A3,3 0 1 1 141.05,230.33A3,3 0 1 1 147.05,230.33Z" style="fill:none;stroke:#FF0000;stroke-width:0.5" />
<path d="M147.05,217.85A3,3 0 1 1 141.05,217.85A3,3 0 1 1 147.05,217.85Z" style="fill:none;stroke:#FF0000;stroke-width:0.5" />
<path d="M89.32,192.9A3,3 0 1 1 83.32,192.9A3,3 0 1 1 89.32,192.9Z" style="fill:none;stroke:#FF0000;stroke-width:0.5" />
<path d="M100.87,180.43A3,3 0 1 1 94.866,180.43A3,3 0 1 1 100.87,180.43Z" style="fill:none;stroke:#FF0000;stroke-width:0.5" />
<path d="M170.14,217.85A3,3 0 1 1 164.14,217.85A3,3 0 1 1 170.14,217.85Z" style="fill:none;stroke:#FF0000;stroke-width:0.5" />
<path d="M147.05,305.18A3,3 0 1 1 141.05,305.18A3,3 0 1 1 147.05,305.18Z" style="fill:none;stroke:#FF0000;stroke-width:0.5" />
<path d="M181.69,317.65A3,3 0 1 1 175.69,317.65A3,3 0 1 1 181.69,317.65Z" style="fill:none;stroke:#FF0000;stroke-width:0.5" />
<path d="M112.41,180.43A3,3 0 1 1 106.41,180.43A3,3 0 1 1 112.41,180.43Z" style="fill:none;stroke:#FF0000;stroke-width:0.5" />
<path d="M123.96,192.9A3,3 0 1 1 117.96,192.9A3,3 0 1 1 123.96,192.9Z" style="fill:none;stroke:#FF0000;stroke-width:0.5" />
<path d="M181.69,230.33A3,3 0 1 1 175.69,230.33A3,3 0 1 1 181.69,230.33Z" style="fill:none;stroke:#FF0000;stroke-width:0.5" />
<path d="M112.41,242.8A3,3 0 1 1 106.41,242.8A3,3 0 1 1 112.41,242.8Z" style="fill:none;stroke:#FF0000;stroke-width:0.5" />
<path d="M54.681,167.96A3,3 0 1 1 48.681,167.96A3,3 0 1 1 54.681,167.96Z" style="fill:none;stroke:#FF0000;stroke-width:0.5" />
<path d="M135.5,217.85A3,3 0 1 1 129.5,217.85A3,3 0 1 1 135.5,217.85Z" style="fill:none;stroke:#FF0000;stroke-width:0.5" />
<path d="M123.96,230.33A3,3 0 1 1 117.96,230.33A3,3 0 1 1 123.96,230.33Z" style="fill:none;stroke:#FF0000;stroke-width:0.5" />
<path d="M66.227,80.633A3,3 0 1 1 60.227,80.633A3,3 0 1 1 66.227,80.633Z" style="fill:none;stroke:#FF0000;stroke-width:0.5" />
<path d="M54.681,192.9A3,3 0 1 1 48.681,192.9A3,3 0 1 1 54.681,192.9Z" style="fill:none;stroke:#FF0000;stroke-width:0.5" />
<path d="M123.96,230.33A3,3 0 1 1 117.96,230.33A3,3 0 1 1 123.96,230.33Z" style="fill:none;stroke:#FF0000;stroke-width:0.5" />
<path d="M135.5,267.75A3,3 0 1 1 129.5,267.75A3,3 0 1 1 135.5,267.75Z" style="fill:none;stroke:#FF0000;stroke-width:0.5" />
<path d="M100.87,167.96A3,3 0 1 1 94.866,167.96A3,3 0 1 1 100.87,167.96Z" style="fill:none;stroke:#FF0000;stroke-width:0.5" />
<path d="M135.5,267.75A3,3 0 1 1 129.5,267.75A3,3 0 1 1 135.5,267.75Z" style="fill:none;stroke:#FF0000;stroke-width:0.5" />
<path d="M77.774,192.9A3,3 0 1 1 71.774,192.9A3,3 0 1 1 77.774,192.9Z" style="fill:none;stroke:#FF0000;stroke-width:0.5" />
<path d="M158.6,255.28A3,3 0 1 1 152.6,255.28A3,3 0 1 1 158.6,255.28Z" style="fill:none;stroke:#FF0000;stroke-width:0.5" />
<path d="M123.96,205.38A3,3 0 1 1 117.96,205.38A3,3 0 1 1 123.96,205.38Z" style="fill:none;stroke:#FF0000;stroke-width:0.5" />
<path d="M349.32,190.34L354.44,190.34L354.44,195.47L349.32,195.47Z" style="fill:none;stroke:#00FF00;stroke-width:0.5" />
<path d="M280.05,190.34L285.17,190.34L285.17,195.47L280.05,195.47Z" style="fill:none;stroke:#00FF00;stroke-width:0.5" />
<path d="M337.78,177.87L342.9,177.87L342.9,182.99L337.78,182.99Z" style="fill:none;stroke:#00FF00;stroke-width:0.5" />
<path d="M176.13,78.072L181.25,78.072L181.25,83.194L176.13,83.194Z" style="fill:none;stroke:#00FF00;stroke-width:0.5" />
<path d="M291.59,140.45L296.71,140.45L296.71,145.57L291.59,145.57Z" style="fill:none;stroke:#00FF00;stroke-width:0.5" />
<path d="M199.22,140.45L204.34,140.45L204.34,145.57L199.22,145.57Z" style="fill:none;stroke:#00FF00;stroke-width:0.5" />
<path d="M268.5,202.82L273.62,202.82L273.62,207.94L268.5,207.94Z" style="fill:none;stroke:#00FF00;stroke-width:0.5" />
<path d="M106.85,90.547L111.97,90.547L111.97,95.668L106.85,95.668Z" style="fill:none;stroke:#00FF00;stroke-width:0.5" />
<path d="M303.14,152.92L308.26,152.92L308.26,158.04L303.14,158.04Z" style="fill:none;stroke:#00FF00;stroke-width:0.5" />
<path d="M141.49,127.97L146.61,127.97L146.61,133.09L141.49,133.09Z" style="fill:none;stroke:#00FF00;stroke-width:0.5" />
<path d="M118.4,40.648L123.52,40.648L123.52,45.77L118.4,45.77Z" style="fill:none;stroke:#00FF00;stroke-width:0.5" />
<path d="M222.31,165.39L227.44,165.39L227.44,170.52L222.31,170.52Z" style="fill:none;stroke:#00FF00;stroke-width:0.5" />
<path d="M233.86,65.598L238.98,65.598L238.98,70.719L233.86,70.719Z" style="fill:none;stroke:#00FF00;stroke-width:0.5" />
<path d="M245.41,152.92L250.53,152.92L250.53,158.04L245.41,158.04Z" style="fill:none;stroke:#00FF00;stroke-width:0.5" />
<path d="M187.68,152.92L192.8,152.92L192.8,158.04L187.68,158.04Z" style="fill:none;stroke:#00FF00;stroke-width:0.5" />
<path d="M314.68,177.87L319.81,177.87L319.81,182.99L314.68,182.99Z" style="fill:none;stroke:#00FF00;stroke-width:0.5" />
<path d="M187.68,165.39L192.8,165.39L192.8,170.52L187.68,170.52Z" style="fill:none;stroke:#00FF00;stroke-width:0.5" />
<path d="M210.77,127.97L215.89,127.97L215.89,133.09L210.77,133.09Z" style="fill:none;stroke:#00FF00;stroke-width:0.5" />
<path d="M256.95,65.598L262.07,65.598L262.07,70.719L256.95,70.719Z" style="fill:none;stroke:#00FF00;stroke-width:0.5" />
<path d="M187.68,103.02L192.8,103.02L192.8,108.14L187.68,108.14Z" style="fill:none;stroke:#00FF00;stroke-width:0.5" />
<path d="M222.31,190.34L227.44,190.34L227.44,195.47L222.31,195.47Z" style="fill:none;stroke:#00FF00;stroke-width:0.5" />
<path d="M245.41,140.45L250.53,140.45L250.53,145.57L245.41,145.57Z" style="fill:none;stroke:#00FF00;stroke-width:0.5" />
<path d="M268.5,103.02L273.62,103.02L273.62,108.14L268.5,108.14Z" style="fill:none;stroke:#00FF00;stroke-width:0.5" />
<path d="M245.41,140.45L250.53,140.45L250.53,145.57L245.41,145.57Z" style="fill:none;stroke:#00FF00;stroke-width:0.5" />
<path d="M280.05,152.92L285.17,152.92L285.17,158.04L280.05,158.04Z" style="fill:none;stroke:#00FF00;stroke-width:0.5" />
<path d="M303.14,165.39L308.26,165.39L308.26,170.52L303.14,170.52Z" style="fill:none;stroke:#00FF00;stroke-width:0.5" />
<path d="M326.23,140.45L331.35,140.45L331.35,145.57L326.23,145.57Z" style="fill:none;stroke:#00FF00;stroke-width:0.5" />
<path d="M314.68,165.39L319.81,165.39L319.81,170.52L314.68,170.52Z" style="fill:none;stroke:#00FF00;stroke-width:0.5" />
<path d="M233.86,152.92L238.98,152.92L238.98,158.04L233.86,158.04Z" style="fill:none;stroke:#00FF00;stroke-width:0.5" />
<path d="M199.22,115.5L204.34,115.5L204.34,120.62L199.22,120.62Z" style="fill:none;stroke:#00FF00;stroke-width:0.5" />
<path d="M176.13,90.547L181.25,90.547L181.25,95.668L176.13,95.668Z" style="fill:none;stroke:#00FF00;stroke-width:0.5" />
<path d="M176.13,90.547L181.25,90.547L181.25,95.668L176.13,95.668Z" style="fill:none;stroke:#00FF00;stroke-width:0.5" />
<path d="M210.77,127.97L215.89,127.97L215.89,133.09L210.77,133.09Z" style="fill:none;stroke:#00FF00;stroke-width:0.5" />
<path d="M233.86,127.97L238.98,127.97L238.98,133.09L233.86,133.09Z" style="fill:none;stroke:#00FF00;stroke-width:0.5" />
<path d="M164.58,165.39L169.7,165.39L169.7,170.52L164.58,170.52Z" style="fill:none;stroke:#00FF00;stroke-width:0.5" />
<path d="M233.86,215.29L238.98,215.29L238.98,220.41L233.86,220.41Z" style="fill:none;stroke:#00FF00;stroke-width:0.5" />
<path d="M314.68,177.87L319.81,177.87L319.81,182.99L314.68,182.99Z" style="fill:none;stroke:#00FF00;stroke-width:0.5" />
<path d="M268.5,78.072L273.62,78.072L273.62,83.194L268.5,83.194Z" style="fill:none;stroke:#00FF00;stroke-width:0.5" />
<path d="M187.68,165.39L192.8,165.39L192.8,170.52L187.68,170.52Z" style="fill:none;stroke:#00FF00;stroke-width:0.5" />
<path d="M176.13,103.02L181.25,103.02L181.25,108.14L176.13,108.14Z" style="fill:none;stroke:#00FF00;stroke-width:0.5" />
<path d="M176.13,115.5L181.25,115.5L181.25,120.62L176.13,120.62Z" style="fill:none;stroke:#00FF00;stroke-width:0.5" />
<path d="M245.41,165.39L250.53,165.39L250.53,170.52L245.41,170.52Z" style="fill:none;stroke:#00FF00;stroke-width:0.5" />
<path d="M210.77,115.5L215.89,115.5L215.89,120.62L210.77,120.62Z" style="fill:none;stroke:#00FF00;stroke-width:0.5" />
<path d="M118.4,78.072L123.52,78.072L123.52,83.194L118.4,83.194Z" style="fill:none;stroke:#00FF00;stroke-width:0.5" />
<path d="M187.68,127.97L192.8,127.97L192.8,133.09L187.68,133.09Z" style="fill:none;stroke:#00FF00;stroke-width:0.5" />
<path d="M199.22,165.39L204.34,165.39L204.34,170.52L199.22,170.52Z" style="fill:none;stroke:#00FF00;stroke-width:0.5" />
<path d="M199.22,152.92L204.34,152.92L204.34,158.04L199.22,158.04Z" style="fill:none;stroke:#00FF00;stroke-width:0.5" />
<path d="M256.95,152.92L262.07,152.92L262.07,158.04L256.95,158.04Z" style="fill:none;stroke:#00FF00;stroke-width:0.5" />
<path d="M129.94,103.02L135.07,103.02L135.07,108.14L129.94,108.14Z" style="fill:none;stroke:#00FF00;stroke-width:0.5" />
<path d="M199.22,140.45L204.34,140.45L204.34,145.57L199.22,145.57Z" style="fill:none;stroke:#00FF00;stroke-width:0.5" />
<path d="M271.06,211.63L265.65,202.25L276.47,202.25Z" style="fill:none;stroke:#0000FF;stroke-width:0.5" />
<path d="M213.33,136.78L207.92,127.41L218.74,127.41Z" style="fill:none;stroke:#0000FF;stroke-width:0.5" />
<path d="M363.43,174.21L358.02,164.83L368.84,164.83Z" style="fill:none;stroke:#0000FF;stroke-width:0.5" />
<path d="M271.06,161.73L265.65,152.36L276.47,152.36Z" style="fill:none;stroke:#0000FF;stroke-width:0.5" />
<path d="M294.15,174.21L288.74,164.83L299.57,164.83Z" style="fill:none;stroke:#0000FF;stroke-width:0.5" />
<path d="M421.16,174.21L415.75,164.83L426.57,164.83Z" style="fill:none;stroke:#0000FF;stroke-width:0.5" />
<path d="M109.41,111.83L104,102.46L114.82,102.46Z" style="fill:none;stroke:#0000FF;stroke-width:0.5" />
<path d="M386.52,161.73L381.11,152.36L391.94,152.36Z" style="fill:none;stroke:#0000FF;stroke-width:0.5" />
<path d="M317.24,111.83L311.83,102.46L322.66,102.46Z" style="fill:none;stroke:#0000FF;stroke-width:0.5" />
<path d="M374.98,249.05L369.56,239.68L380.39,239.68Z" style="fill:none;stroke:#0000FF;stroke-width:0.5" />
<path d="M294.15,199.15L288.74,189.78L299.57,189.78Z" style="fill:none;stroke:#0000FF;stroke-width:0.5" />
<path d="M282.61,136.78L277.19,127.41L288.02,127.41Z" style="fill:none;stroke:#0000FF;stroke-width:0.5" />
<path d="M328.79,174.21L323.38,164.83L334.2,164.83Z" style="fill:none;stroke:#0000FF;stroke-width:0.5" />
<path d="M201.78,111.83L196.37,102.46L207.2,102.46Z" style="fill:none;stroke:#0000FF;stroke-width:0.5" />
<path d="M213.33,149.26L207.92,139.88L218.74,139.88Z" style="fill:none;stroke:#0000FF;stroke-width:0.5" />
<path d="M282.61,199.15L277.19,189.78L288.02,189.78Z" style="fill:none;stroke:#0000FF;stroke-width:0.5" />
<path d="M294.15,174.21L288.74,164.83L299.57,164.83Z" style="fill:none;stroke:#0000FF;stroke-width:0.5" />
<path d="M432.71,274L427.29,264.63L438.12,264.63Z" style="fill:none;stroke:#0000FF;stroke-width:0.5" />
<path d="M432.71,124.31L427.29,114.93L438.12,114.93Z" style="fill:none;stroke:#0000FF;stroke-width:0.5" />
<path d="M236.42,74.408L231.01,65.033L241.83,65.033Z" style="fill:none;stroke:#0000FF;stroke-width:0.5" />
<path d="M340.34,199.15L334.92,189.78L345.75,189.78Z" style="fill:none;stroke:#0000FF;stroke-width:0.5" />
<path d="M190.24,149.26L184.82,139.88L195.65,139.88Z" style="fill:none;stroke:#0000FF;stroke-width:0.5" />
<path d="M432.71,149.26L427.29,139.88L438.12,139.88Z" style="fill:none;stroke:#0000FF;stroke-width:0.5" />
<path d="M271.06,136.78L265.65,127.41L276.47,127.41Z" style="fill:none;stroke:#0000FF;stroke-width:0.5" />
<path d="M317.24,211.63L311.83,202.25L322.66,202.25Z" style="fill:none;stroke:#0000FF;stroke-width:0.5" />
<path d="M374.98,199.15L369.56,189.78L380.39,189.78Z" style="fill:none;stroke:#0000FF;stroke-width:0.5" />
<path d="M259.51,149.26L254.1,139.88L264.93,139.88Z" style="fill:none;stroke:#0000FF;stroke-width:0.5" />
<path d="M247.97,174.21L242.55,164.83L253.38,164.83Z" style="fill:none;stroke:#0000FF;stroke-width:0.5" />
<path d="M282.61,149.26L277.19,139.88L288.02,139.88Z" style="fill:none;stroke:#0000FF;stroke-width:0.5" />
<path d="M374.98,174.21L369.56,164.83L380.39,164.83Z" style="fill:none;stroke:#0000FF;stroke-width:0.5" />
<path d="M398.07,149.26L392.66,139.88L403.48,139.88Z" style="fill:none;stroke:#0000FF;stroke-width:0.5" />
<path d="M455.8,274L450.39,264.63L461.21,264.63Z" style="fill:none;stroke:#0000FF;stroke-width:0.5" />
<path d="M282.61,149.26L277.19,139.88L288.02,139.88Z" style="fill:none;stroke:#0000FF;stroke-width:0.5" />
<path d="M271.06,149.26L265.65,139.88L276.47,139.88Z" style="fill:none;stroke:#0000FF;stroke-width:0.5" />
<path d="M247.97,124.31L242.55,114.93L253.38,114.93Z" style="fill:none;stroke:#0000FF;stroke-width:0.5" />
<path d="M432.71,174.21L427.29,164.83L438.12,164.83Z" style="fill:none;stroke:#0000FF;stroke-width:0.5" />
<path d="M271.06,224.1L265.65,214.73L276.47,214.73Z" style="fill:none;stroke:#0000FF;stroke-width:0.5" />
<path d="M282.61,186.68L277.19,177.3L288.02,177.3Z" style="fill:none;stroke:#0000FF;stroke-width:0.5" />
<path d="M236.42,174.21L231.01,164.83L241.83,164.83Z" style="fill:none;stroke:#0000FF;stroke-width:0.5" />
<path d="M340.34,186.68L334.92,177.3L345.75,177.3Z" style="fill:none;stroke:#0000FF;stroke-width:0.5" />
<path d="M317.24,186.68L311.83,177.3L322.66,177.3Z" style="fill:none;stroke:#0000FF;stroke-width:0.5" />
<path d="M340.34,186.68L334.92,177.3L345.75,177.3Z" style="fill:none;stroke:#0000FF;stroke-width:0.5" />
<path d="M328.79,199.15L323.38,189.78L334.2,189.78Z" style="fill:none;stroke:#0000FF;stroke-width:0.5" />
<path d="M317.24,211.63L311.83,202.25L322.66,202.25Z" style="fill:none;stroke:#0000FF;stroke-width:0.5" />
<path d="M317.24,174.21L311.83,164.83L322.66,164.83Z" style="fill:none;stroke:#0000FF;stroke-width:0.5" />
<path d="M271.06,111.83L265.65,102.46L276.47,102.46Z" style="fill:none;stroke:#0000FF;stroke-width:0.5" />
<path d="M294.15,174.21L288.74,164.83L299.57,164.83Z" style="fill:none;stroke:#0000FF;stroke-width:0.5" />
<path d="M259.51,224.1L254.1,214.73L264.93,214.73Z" style="fill:none;stroke:#0000FF;stroke-width:0.5" />
<path d="M224.87,174.21L219.46,164.83L230.29,164.83Z" style="fill:none;stroke:#0000FF;stroke-width:0.5" />
<path d="M453.8,65.668A3,3 0 1 1 447.8,65.668A3,3 0 1 1 453.8,65.668Z" style="fill:none;stroke:#FF0000;stroke-width:0.5" />
<text x="408.47" y="-63.181" transform="scale(1, -1)"
	style="font-family:Liberation Serif;font-variant:normal;font-weight:normal;font-style:normal;font-size:12px">setosa</text>
<path d="M448.24,52.924L453.36,52.924L453.36,58.045L448.24,58.045Z" style="fill:none;stroke:#00FF00;stroke-width:0.5" />
<text x="389.82" y="-52.997" transform="scale(1, -1)"
	style="font-family:Liberation Serif;font-variant:normal;font-weight:normal;font-style:normal;font-size:12px">versicolor</text>
<path d="M450.8,51.551L445.39,42.176L456.21,42.176Z" style="fill:none;stroke:#0000FF;stroke-width:0.5" />
<text x="395.37" y="-42.813" transform="scale(1, -1)"
	style="font-family:Liberation Serif;font-variant:normal;font-weight:normal;font-style:normal;font-size:12px">virginica</text>
</g>
</svg>
