<?xml version="1.0"?>
<!-- Generated by SVGo and Plotinum VG -->
<svg width="460.8pt" height="345.6pt" viewBox="0 0 460.8 345.6"
	xmlns="http://www.w3.org/2000/svg"
	xmlns:xlink="http://www.w3.org/1999/xlink">
<g transform="scale(1, -1) translate(0, -345.6)">
<path d="M0,0L460.8,0L460.8,345.6L0,345.6Z" style="fill:#FFFFFF" />
<text x="185.92" y="-336.21" transform="scale(1, -1)"
	style="font-family:Liberation Serif;font-variant:normal;font-weight:normal;font-style:normal;font-size:12px">Narrowband beam</text>
<text x="245.15" y="-2.0527" transform="scale(1, -1)"
	style="font-family:Liberation Serif;font-variant:normal;font-weight:normal;font-style:normal;font-size:12px">θ</text>
<text x="252.49" y="-2.0527" transform="scale(1, -1)"
	style="font-family:Liberation Serif;font-variant:normal;font-weight:normal;font-style:normal;font-size:12px">(</text>
<text x="256.49" y="-2.0527" transform="scale(1, -1)"
	style="font-family:Liberation Serif;font-variant:normal;font-weight:normal;font-style:normal;font-size:12px">°</text>
<text x="261.29" y="-2.0527" transform="scale(1, -1)"
	style="font-family:Liberation Serif;font-variant:normal;font-weight:normal;font-style:normal;font-size:12px">)</text>
<text x="54.635" y="-14.715" transform="scale(1, -1)"
	style="font-family:Liberation Serif;font-variant:normal;font-weight:normal;font-style:normal;font-size:10px">0</text>
<text x="118.16" y="-14.715" transform="scale(1, -1)"
	style="font-family:Liberation Serif;font-variant:normal;font-weight:normal;font-style:normal;font-size:10px">30</text>
<text x="184.19" y="-14.715" transform="scale(1, -1)"
	style="font-family:Liberation Serif;font-variant:normal;font-weight:normal;font-style:normal;font-size:10px">60</text>
<text x="250.22" y="-14.715" transform="scale(1, -1)"
	style="font-family:Liberation Serif;font-variant:normal;font-weight:normal;font-style:normal;font-size:10px">90</text>
<text x="313.74" y="-14.715" transform="scale(1, -1)"
	style="font-family:Liberation Serif;font-variant:normal;font-weight:normal;font-style:normal;font-size:10px">120</text>
<text x="379.77" y="-14.715" transform="scale(1, -1)"
	style="font-family:Liberation Serif;font-variant:normal;font-weight:normal;font-style:normal;font-size:10px">150</text>
<text x="445.8" y="-14.715" transform="scale(1, -1)"
	style="font-family:Liberation Serif;font-variant:normal;font-weight:normal;font-style:normal;font-size:10px">180</text>
<path d="M57.135,22.537L57.135,30.537" style="fill:none;stroke:#000000;stroke-width:0.5" />
<path d="M123.16,22.537L123.16,30.537" style="fill:none;stroke:#000000;stroke-width:0.5" />
<path d="M189.19,22.537L189.19,30.537" style="fill:none;stroke:#000000;stroke-width:0.5" />
<path d="M255.22,22.537L255.22,30.537" style="fill:none;stroke:#000000;stroke-width:0.5" />
<path d="M321.24,22.537L321.24,30.537" style="fill:none;stroke:#000000;stroke-width:0.5" />
<path d="M387.27,22.537L387.27,30.537" style="fill:none;stroke:#000000;stroke-width:0.5" />
<path d="M453.3,22.537L453.3,30.537" style="fill:none;stroke:#000000;stroke-width:0.5" />
<path d="M57.135,30.537L453.3,30.537" style="fill:none;stroke:#000000;stroke-width:0.5" />
<g transform="rotate(90)">
<text x="168.77" y="9.3867" transform="scale(1, -1)"
	style="font-family:Liberation Serif;font-variant:normal;font-weight:normal;font-style:normal;font-size:12px">Power</text>
</g>
<text x="15.885" y="-86.829" transform="scale(1, -1)"
	style="font-family:Liberation Serif;font-variant:normal;font-weight:normal;font-style:normal;font-size:10px">0.002</text>
<text x="15.885" y="-193.77" transform="scale(1, -1)"
	style="font-family:Liberation Serif;font-variant:normal;font-weight:normal;font-style:normal;font-size:10px">0.006</text>
<text x="20.885" y="-300.7" transform="scale(1, -1)"
	style="font-family:Liberation Serif;font-variant:normal;font-weight:normal;font-style:normal;font-size:10px">0.01</text>
<path d="M40.885,89.114L48.885,89.114" style="fill:none;stroke:#000000;stroke-width:0.5" />
<path d="M40.885,196.05L48.885,196.05" style="fill:none;stroke:#000000;stroke-width:0.5" />
<path d="M40.885,302.99L48.885,302.99" style="fill:none;stroke:#000000;stroke-width:0.5" />
<path d="M44.885,62.38L48.885,62.38" style="fill:none;stroke:#000000;stroke-width:0.5" />
<path d="M44.885,115.85L48.885,115.85" style="fill:none;stroke:#000000;stroke-width:0.5" />
<path d="M44.885,142.58L48.885,142.58" style="fill:none;stroke:#000000;stroke-width:0.5" />
<path d="M44.885,169.32L48.885,169.32" style="fill:none;stroke:#000000;stroke-width:0.5" />
<path d="M44.885,222.78L48.885,222.78" style="fill:none;stroke:#000000;stroke-width:0.5" />
<path d="M44.885,249.52L48.885,249.52" style="fill:none;stroke:#000000;stroke-width:0.5" />
<path d="M44.885,276.25L48.885,276.25" style="fill:none;stroke:#000000;stroke-width:0.5" />
<path d="M44.885,329.72L48.885,329.72" style="fill:none;stroke:#000000;stroke-width:0.5" />
<path d="M48.885,38.383L48.885,329.81" style="fill:none;stroke:#000000;stroke-width:0.5" />
<path d="M57.135,38.383L57.135,329.81" style="fill:none;stroke:#808080;stroke-width:0.25" />
<path d="M123.16,38.383L123.16,329.81" style="fill:none;stroke:#808080;stroke-width:0.25" />
<path d="M189.19,38.383L189.19,329.81" style="fill:none;stroke:#808080;stroke-width:0.25" />
<path d="M255.22,38.383L255.22,329.81" style="fill:none;stroke:#808080;stroke-width:0.25" />
<path d="M321.24,38.383L321.24,329.81" style="fill:none;stroke:#808080;stroke-width:0.25" />
<path d="M387.27,38.383L387.27,329.81" style="fill:none;stroke:#808080;stroke-width:0.25" />
<path d="M453.3,38.383L453.3,329.81" style="fill:none;stroke:#808080;stroke-width:0.25" />
<path d="M57.135,89.114L453.3,89.114" style="fill:none;stroke:#808080;stroke-width:0.25" />
<path d="M57.135,196.05L453.3,196.05" style="fill:none;stroke:#808080;stroke-width:0.25" />
<path d="M57.135,302.99L453.3,302.99" style="fill:none;stroke:#808080;stroke-width:0.25" />
<path d="M57.135,39.754L59.336,39.724L61.537,39.636L63.738,39.5L65.938,39.332L68.139,39.158L70.34,39.014L72.541,38.952L74.742,39.04L76.943,39.369L79.144,40.058L81.345,41.255L83.546,43.141L85.747,45.936L87.948,49.895L90.149,55.302L92.349,62.465L94.55,71.697L96.751,83.289L98.952,97.483L101.15,114.42L103.35,134.11L105.55,156.35L107.76,180.71L109.96,206.44L112.16,232.51L114.36,257.58L116.56,280.08L118.76,298.27L120.96,310.42L123.16,315.01L125.36,310.94L127.56,297.71L129.77,275.66L131.97,246.01L134.17,210.86L136.37,172.98L138.57,135.55L140.77,101.7L142.97,74.026L145.17,54.224L147.37,42.756L149.57,38.811L151.77,40.496L153.98,45.266L156.18,50.501L158.38,54.087L160.58,54.854L162.78,52.741L164.98,48.652L167.18,44.026L169.38,40.295L171.58,38.383L173.78,38.437L175.98,39.868L178.19,41.669L180.39,42.873L182.59,42.945L184.79,41.961L186.99,40.487L189.19,39.25L191.39,38.769L193.59,39.113L195.79,39.921L197.99,40.639L200.19,40.839L202.4,40.444L204.6,39.734L206.8,39.145L209,38.992L211.2,39.284L213.4,39.748L215.6,40.028L217.8,39.928L220,39.538L222.2,39.159L224.4,39.087L226.61,39.392L228.81,39.865L231.01,40.157L233.21,40.024L235.41,39.509L237.61,38.923L239.81,38.639L242.01,38.843L244.21,39.399L246.41,39.937L248.61,40.104L250.82,39.801L253.02,39.242L255.22,38.806L257.42,38.773L259.62,39.132L261.82,39.596L264.02,39.811L266.22,39.607L268.42,39.113L270.62,38.674L272.82,38.607L275.03,38.982L277.23,39.572L279.43,40.003L281.63,40.002L283.83,39.575L286.03,38.996L288.23,38.627L290.43,38.682L292.63,39.101L294.83,39.594L297.03,39.843L299.24,39.702L301.44,39.291L303.64,38.91L305.84,38.851L308.04,39.214L310.24,39.841L312.44,40.405L314.64,40.598L316.84,40.301L319.04,39.644L321.24,38.938L323.45,38.505L325.65,38.525L327.85,38.955L330.05,39.57L332.25,40.086L334.45,40.298L336.65,40.174L338.85,39.845L341.05,39.529L343.25,39.415L345.46,39.575L347.66,39.936L349.86,40.321L352.06,40.539L354.26,40.471L356.46,40.125L358.66,39.64L360.86,39.23L363.06,39.111L365.26,39.416L367.46,40.155L369.67,41.205L371.87,42.345L374.07,43.322L376.27,43.918L378.47,44.005L380.67,43.574L382.87,42.731L385.07,41.674L387.27,40.638L389.47,39.855L391.67,39.504L393.88,39.687L396.08,40.418L398.28,41.627L400.48,43.181L402.68,44.911L404.88,46.637L407.08,48.194L409.28,49.451L411.48,50.32L413.68,50.762L415.88,50.779L418.09,50.411L420.29,49.723L422.49,48.797L424.69,47.718L426.89,46.567L429.09,45.415L431.29,44.32L433.49,43.324L435.69,42.453L437.89,41.718L440.09,41.121L442.3,40.652L444.5,40.3L446.7,40.047L448.9,39.88L451.1,39.785L453.3,39.754" style="fill:none;stroke:#F15A60;stroke-width:1.5" />
<path d="M57.135,49.8L59.336,49.767L61.537,49.674L63.738,49.528L65.938,49.346L68.139,49.154L70.34,48.988L72.541,48.899L74.742,48.958L76.943,49.257L79.144,49.915L81.345,51.084L83.546,52.952L85.747,55.742L87.948,59.718L90.149,65.173L92.349,72.425L94.55,81.798L96.751,93.597L98.952,108.07L101.15,125.37L103.35,145.5L105.55,168.26L107.76,193.19L109.96,219.54L112.16,246.23L114.36,271.86L116.56,294.8L118.76,313.26L120.96,325.46L123.16,329.81L125.36,325.19L127.56,311.11L129.77,287.95L131.97,257.01L134.17,220.5L136.37,181.34L138.57,142.85L140.77,108.27L142.97,80.332L145.17,60.738L147.37,49.923L149.57,46.968L151.77,49.814L153.98,55.715L156.18,61.847L158.38,65.928L160.58,66.686L162.78,64.051L164.98,59.007L167.18,53.157L169.38,48.149L171.58,45.133L173.78,44.447L175.98,45.618L178.19,47.656L180.39,49.503L182.59,50.451L184.79,50.355L186.99,49.576L189.19,48.703L191.39,48.215L193.59,48.255L195.79,48.614L197.99,48.909L200.19,48.842L202.4,48.381L204.6,47.752L206.8,47.279L209,47.164L211.2,47.362L213.4,47.629L215.6,47.699L217.8,47.477L220,47.104L222.2,46.858L224.4,46.945L226.61,47.353L228.81,47.84L231.01,48.112L233.21,48.025L235.41,47.707L237.61,47.47L239.81,47.589L242.01,48.099L244.21,48.751L246.41,49.176L248.61,49.157L250.82,48.8L253.02,48.493L255.22,48.651L257.42,49.42L259.62,50.545L261.82,51.49L264.02,51.76L266.22,51.197L268.42,50.079L270.62,48.948L272.82,48.285L275.03,48.24L277.23,48.589L279.43,48.926L281.63,48.952L283.83,48.673L286.03,48.373L288.23,48.405L290.43,48.939L292.63,49.838L294.83,50.733L297.03,51.246L299.24,51.205L301.44,50.725L303.64,50.113L305.84,49.666L308.04,49.495L310.24,49.487L312.44,49.408L314.64,49.089L316.84,48.562L319.04,48.067L321.24,47.929L323.45,48.373L325.65,49.377L327.85,50.654L330.05,51.769L332.25,52.322L334.45,52.129L336.65,51.289L338.85,50.139L341.05,49.105L343.25,48.528L345.46,48.538L347.66,49.023L349.86,49.701L352.06,50.243L354.26,50.409L356.46,50.133L358.66,49.539L360.86,48.876L363.06,48.429L365.26,48.409L367.46,48.89L369.67,49.786L371.87,50.882L374.07,51.907L376.27,52.607L378.47,52.814L380.67,52.486L382.87,51.709L385.07,50.67L387.27,49.613L389.47,48.784L391.67,48.381L393.88,48.526L396.08,49.247L398.28,50.482L400.48,52.103L402.68,53.935L404.88,55.791L407.08,57.497L409.28,58.91L411.48,59.933L413.68,60.516L415.88,60.656L418.09,60.391L420.29,59.783L422.49,58.915L424.69,57.872L426.89,56.741L429.09,55.595L431.29,54.496L433.49,53.488L435.69,52.599L437.89,51.846L440.09,51.229L442.3,50.743L444.5,50.375L446.7,50.11L448.9,49.933L451.1,49.832L453.3,49.8" style="fill:none;stroke:#7AC36A;stroke-dasharray:6,2" />
<path d="M55.001,47.666L59.269,47.666L59.269,51.933L55.001,51.933Z" style="fill:none;stroke:#7AC36A;stroke-width:0.5" />
<path d="M57.202,47.634L61.47,47.634L61.47,51.901L57.202,51.901Z" style="fill:none;stroke:#7AC36A;stroke-width:0.5" />
<path d="M59.403,47.54L63.67,47.54L63.67,51.808L59.403,51.808Z" style="fill:none;stroke:#7AC36A;stroke-width:0.5" />
<path d="M61.604,47.394L65.871,47.394L65.871,51.662L61.604,51.662Z" style="fill:none;stroke:#7AC36A;stroke-width:0.5" />
<path d="M63.805,47.212L68.072,47.212L68.072,51.48L63.805,51.48Z" style="fill:none;stroke:#7AC36A;stroke-width:0.5" />
<path d="M66.005,47.02L70.273,47.02L70.273,51.288L66.005,51.288Z" style="fill:none;stroke:#7AC36A;stroke-width:0.5" />
<path d="M68.206,46.854L72.474,46.854L72.474,51.122L68.206,51.122Z" style="fill:none;stroke:#7AC36A;stroke-width:0.5" />
<path d="M70.407,46.765L74.675,46.765L74.675,51.033L70.407,51.033Z" style="fill:none;stroke:#7AC36A;stroke-width:0.5" />
<path d="M72.608,46.824L76.876,46.824L76.876,51.092L72.608,51.092Z" style="fill:none;stroke:#7AC36A;stroke-width:0.5" />
<path d="M74.809,47.123L79.077,47.123L79.077,51.391L74.809,51.391Z" style="fill:none;stroke:#7AC36A;stroke-width:0.5" />
<path d="M77.01,47.781L81.278,47.781L81.278,52.049L77.01,52.049Z" style="fill:none;stroke:#7AC36A;stroke-width:0.5" />
<path d="M79.211,48.951L83.479,48.951L83.479,53.218L79.211,53.218Z" style="fill:none;stroke:#7AC36A;stroke-width:0.5" />
<path d="M81.412,50.818L85.68,50.818L85.68,55.086L81.412,55.086Z" style="fill:none;stroke:#7AC36A;stroke-width:0.5" />
<path d="M83.613,53.608L87.881,53.608L87.881,57.876L83.613,57.876Z" style="fill:none;stroke:#7AC36A;stroke-width:0.5" />
<path d="M85.814,57.584L90.082,57.584L90.082,61.851L85.814,61.851Z" style="fill:none;stroke:#7AC36A;stroke-width:0.5" />
<path d="M88.015,63.039L92.282,63.039L92.282,67.306L88.015,67.306Z" style="fill:none;stroke:#7AC36A;stroke-width:0.5" />
<path d="M90.216,70.291L94.483,70.291L94.483,74.559L90.216,74.559Z" style="fill:none;stroke:#7AC36A;stroke-width:0.5" />
<path d="M92.416,79.664L96.684,79.664L96.684,83.932L92.416,83.932Z" style="fill:none;stroke:#7AC36A;stroke-width:0.5" />
<path d="M94.617,91.463L98.885,91.463L98.885,95.731L94.617,95.731Z" style="fill:none;stroke:#7AC36A;stroke-width:0.5" />
<path d="M96.818,105.94L101.09,105.94L101.09,110.2L96.818,110.2Z" style="fill:none;stroke:#7AC36A;stroke-width:0.5" />
<path d="M99.019,123.24L103.29,123.24L103.29,127.51L99.019,127.51Z" style="fill:none;stroke:#7AC36A;stroke-width:0.5" />
<path d="M101.22,143.37L105.49,143.37L105.49,147.64L101.22,147.64Z" style="fill:none;stroke:#7AC36A;stroke-width:0.5" />
<path d="M103.42,166.13L107.69,166.13L107.69,170.4L103.42,170.4Z" style="fill:none;stroke:#7AC36A;stroke-width:0.5" />
<path d="M105.62,191.06L109.89,191.06L109.89,195.33L105.62,195.33Z" style="fill:none;stroke:#7AC36A;stroke-width:0.5" />
<path d="M107.82,217.41L112.09,217.41L112.09,221.68L107.82,221.68Z" style="fill:none;stroke:#7AC36A;stroke-width:0.5" />
<path d="M110.02,244.09L114.29,244.09L114.29,248.36L110.02,248.36Z" style="fill:none;stroke:#7AC36A;stroke-width:0.5" />
<path d="M112.22,269.73L116.49,269.73L116.49,273.99L112.22,273.99Z" style="fill:none;stroke:#7AC36A;stroke-width:0.5" />
<path d="M114.43,292.67L118.69,292.67L118.69,296.94L114.43,296.94Z" style="fill:none;stroke:#7AC36A;stroke-width:0.5" />
<path d="M116.63,311.13L120.89,311.13L120.89,315.4L116.63,315.4Z" style="fill:none;stroke:#7AC36A;stroke-width:0.5" />
<path d="M118.83,323.32L123.1,323.32L123.1,327.59L118.83,327.59Z" style="fill:none;stroke:#7AC36A;stroke-width:0.5" />
<path d="M121.03,327.68L125.3,327.68L125.3,331.94L121.03,331.94Z" style="fill:none;stroke:#7AC36A;stroke-width:0.5" />
<path d="M123.23,323.05L127.5,323.05L127.5,327.32L123.23,327.32Z" style="fill:none;stroke:#7AC36A;stroke-width:0.5" />
<path d="M125.43,308.98L129.7,308.98L129.7,313.24L125.43,313.24Z" style="fill:none;stroke:#7AC36A;stroke-width:0.5" />
<path d="M127.63,285.82L131.9,285.82L131.9,290.08L127.63,290.08Z" style="fill:none;stroke:#7AC36A;stroke-width:0.5" />
<path d="M129.83,254.88L134.1,254.88L134.1,259.15L129.83,259.15Z" style="fill:none;stroke:#7AC36A;stroke-width:0.5" />
<path d="M132.03,218.37L136.3,218.37L136.3,222.63L132.03,222.63Z" style="fill:none;stroke:#7AC36A;stroke-width:0.5" />
<path d="M134.23,179.21L138.5,179.21L138.5,183.47L134.23,183.47Z" style="fill:none;stroke:#7AC36A;stroke-width:0.5" />
<path d="M136.43,140.71L140.7,140.71L140.7,144.98L136.43,144.98Z" style="fill:none;stroke:#7AC36A;stroke-width:0.5" />
<path d="M138.64,106.14L142.9,106.14L142.9,110.41L138.64,110.41Z" style="fill:none;stroke:#7AC36A;stroke-width:0.5" />
<path d="M140.84,78.199L145.1,78.199L145.1,82.466L140.84,82.466Z" style="fill:none;stroke:#7AC36A;stroke-width:0.5" />
<path d="M143.04,58.605L147.31,58.605L147.31,62.872L143.04,62.872Z" style="fill:none;stroke:#7AC36A;stroke-width:0.5" />
<path d="M145.24,47.789L149.51,47.789L149.51,52.057L145.24,52.057Z" style="fill:none;stroke:#7AC36A;stroke-width:0.5" />
<path d="M147.44,44.834L151.71,44.834L151.71,49.102L147.44,49.102Z" style="fill:none;stroke:#7AC36A;stroke-width:0.5" />
<path d="M149.64,47.68L153.91,47.68L153.91,51.948L149.64,51.948Z" style="fill:none;stroke:#7AC36A;stroke-width:0.5" />
<path d="M151.84,53.582L156.11,53.582L156.11,57.849L151.84,57.849Z" style="fill:none;stroke:#7AC36A;stroke-width:0.5" />
<path d="M154.04,59.713L158.31,59.713L158.31,63.981L154.04,63.981Z" style="fill:none;stroke:#7AC36A;stroke-width:0.5" />
<path d="M156.24,63.794L160.51,63.794L160.51,68.062L156.24,68.062Z" style="fill:none;stroke:#7AC36A;stroke-width:0.5" />
<path d="M158.44,64.552L162.71,64.552L162.71,68.82L158.44,68.82Z" style="fill:none;stroke:#7AC36A;stroke-width:0.5" />
<path d="M160.64,61.918L164.91,61.918L164.91,66.185L160.64,66.185Z" style="fill:none;stroke:#7AC36A;stroke-width:0.5" />
<path d="M162.85,56.873L167.11,56.873L167.11,61.141L162.85,61.141Z" style="fill:none;stroke:#7AC36A;stroke-width:0.5" />
<path d="M165.05,51.024L169.31,51.024L169.31,55.291L165.05,55.291Z" style="fill:none;stroke:#7AC36A;stroke-width:0.5" />
<path d="M167.25,46.016L171.52,46.016L171.52,50.283L167.25,50.283Z" style="fill:none;stroke:#7AC36A;stroke-width:0.5" />
<path d="M169.45,42.999L173.72,42.999L173.72,47.267L169.45,47.267Z" style="fill:none;stroke:#7AC36A;stroke-width:0.5" />
<path d="M171.65,42.313L175.92,42.313L175.92,46.581L171.65,46.581Z" style="fill:none;stroke:#7AC36A;stroke-width:0.5" />
<path d="M173.85,43.484L178.12,43.484L178.12,47.752L173.85,47.752Z" style="fill:none;stroke:#7AC36A;stroke-width:0.5" />
<path d="M176.05,45.522L180.32,45.522L180.32,49.79L176.05,49.79Z" style="fill:none;stroke:#7AC36A;stroke-width:0.5" />
<path d="M178.25,47.369L182.52,47.369L182.52,51.637L178.25,51.637Z" style="fill:none;stroke:#7AC36A;stroke-width:0.5" />
<path d="M180.45,48.317L184.72,48.317L184.72,52.585L180.45,52.585Z" style="fill:none;stroke:#7AC36A;stroke-width:0.5" />
<path d="M182.65,48.221L186.92,48.221L186.92,52.489L182.65,52.489Z" style="fill:none;stroke:#7AC36A;stroke-width:0.5" />
<path d="M184.86,47.442L189.12,47.442L189.12,51.71L184.86,51.71Z" style="fill:none;stroke:#7AC36A;stroke-width:0.5" />
<path d="M187.06,46.569L191.32,46.569L191.32,50.836L187.06,50.836Z" style="fill:none;stroke:#7AC36A;stroke-width:0.5" />
<path d="M189.26,46.081L193.52,46.081L193.52,50.349L189.26,50.349Z" style="fill:none;stroke:#7AC36A;stroke-width:0.5" />
<path d="M191.46,46.122L195.73,46.122L195.73,50.389L191.46,50.389Z" style="fill:none;stroke:#7AC36A;stroke-width:0.5" />
<path d="M193.66,46.48L197.93,46.48L197.93,50.748L193.66,50.748Z" style="fill:none;stroke:#7AC36A;stroke-width:0.5" />
<path d="M195.86,46.775L200.13,46.775L200.13,51.043L195.86,51.043Z" style="fill:none;stroke:#7AC36A;stroke-width:0.5" />
<path d="M198.06,46.708L202.33,46.708L202.33,50.976L198.06,50.976Z" style="fill:none;stroke:#7AC36A;stroke-width:0.5" />
<path d="M200.26,46.247L204.53,46.247L204.53,50.515L200.26,50.515Z" style="fill:none;stroke:#7AC36A;stroke-width:0.5" />
<path d="M202.46,45.618L206.73,45.618L206.73,49.886L202.46,49.886Z" style="fill:none;stroke:#7AC36A;stroke-width:0.5" />
<path d="M204.66,45.145L208.93,45.145L208.93,49.413L204.66,49.413Z" style="fill:none;stroke:#7AC36A;stroke-width:0.5" />
<path d="M206.86,45.03L211.13,45.03L211.13,49.298L206.86,49.298Z" style="fill:none;stroke:#7AC36A;stroke-width:0.5" />
<path d="M209.07,45.228L213.33,45.228L213.33,49.496L209.07,49.496Z" style="fill:none;stroke:#7AC36A;stroke-width:0.5" />
<path d="M211.27,45.495L215.53,45.495L215.53,49.763L211.27,49.763Z" style="fill:none;stroke:#7AC36A;stroke-width:0.5" />
<path d="M213.47,45.565L217.73,45.565L217.73,49.833L213.47,49.833Z" style="fill:none;stroke:#7AC36A;stroke-width:0.5" />
<path d="M215.67,45.343L219.94,45.343L219.94,49.611L215.67,49.611Z" style="fill:none;stroke:#7AC36A;stroke-width:0.5" />
<path d="M217.87,44.971L222.14,44.971L222.14,49.238L217.87,49.238Z" style="fill:none;stroke:#7AC36A;stroke-width:0.5" />
<path d="M220.07,44.724L224.34,44.724L224.34,48.991L220.07,48.991Z" style="fill:none;stroke:#7AC36A;stroke-width:0.5" />
<path d="M222.27,44.812L226.54,44.812L226.54,49.079L222.27,49.079Z" style="fill:none;stroke:#7AC36A;stroke-width:0.5" />
<path d="M224.47,45.219L228.74,45.219L228.74,49.486L224.47,49.486Z" style="fill:none;stroke:#7AC36A;stroke-width:0.5" />
<path d="M226.67,45.706L230.94,45.706L230.94,49.974L226.67,49.974Z" style="fill:none;stroke:#7AC36A;stroke-width:0.5" />
<path d="M228.87,45.978L233.14,45.978L233.14,50.245L228.87,50.245Z" style="fill:none;stroke:#7AC36A;stroke-width:0.5" />
<path d="M231.07,45.891L235.34,45.891L235.34,50.159L231.07,50.159Z" style="fill:none;stroke:#7AC36A;stroke-width:0.5" />
<path d="M233.28,45.574L237.54,45.574L237.54,49.841L233.28,49.841Z" style="fill:none;stroke:#7AC36A;stroke-width:0.5" />
<path d="M235.48,45.336L239.74,45.336L239.74,49.604L235.48,49.604Z" style="fill:none;stroke:#7AC36A;stroke-width:0.5" />
<path d="M237.68,45.455L241.94,45.455L241.94,49.723L237.68,49.723Z" style="fill:none;stroke:#7AC36A;stroke-width:0.5" />
<path d="M239.88,45.965L244.15,45.965L244.15,50.233L239.88,50.233Z" style="fill:none;stroke:#7AC36A;stroke-width:0.5" />
<path d="M242.08,46.617L246.35,46.617L246.35,50.885L242.08,50.885Z" style="fill:none;stroke:#7AC36A;stroke-width:0.5" />
<path d="M244.28,47.042L248.55,47.042L248.55,51.31L244.28,51.31Z" style="fill:none;stroke:#7AC36A;stroke-width:0.5" />
<path d="M246.48,47.023L250.75,47.023L250.75,51.291L246.48,51.291Z" style="fill:none;stroke:#7AC36A;stroke-width:0.5" />
<path d="M248.68,46.666L252.95,46.666L252.95,50.934L248.68,50.934Z" style="fill:none;stroke:#7AC36A;stroke-width:0.5" />
<path d="M250.88,46.359L255.15,46.359L255.15,50.627L250.88,50.627Z" style="fill:none;stroke:#7AC36A;stroke-width:0.5" />
<path d="M253.08,46.517L257.35,46.517L257.35,50.784L253.08,50.784Z" style="fill:none;stroke:#7AC36A;stroke-width:0.5" />
<path d="M255.28,47.286L259.55,47.286L259.55,51.554L255.28,51.554Z" style="fill:none;stroke:#7AC36A;stroke-width:0.5" />
<path d="M257.49,48.411L261.75,48.411L261.75,52.678L257.49,52.678Z" style="fill:none;stroke:#7AC36A;stroke-width:0.5" />
<path d="M259.69,49.356L263.95,49.356L263.95,53.624L259.69,53.624Z" style="fill:none;stroke:#7AC36A;stroke-width:0.5" />
<path d="M261.89,49.626L266.15,49.626L266.15,53.894L261.89,53.894Z" style="fill:none;stroke:#7AC36A;stroke-width:0.5" />
<path d="M264.09,49.063L268.36,49.063L268.36,53.331L264.09,53.331Z" style="fill:none;stroke:#7AC36A;stroke-width:0.5" />
<path d="M266.29,47.945L270.56,47.945L270.56,52.213L266.29,52.213Z" style="fill:none;stroke:#7AC36A;stroke-width:0.5" />
<path d="M268.49,46.814L272.76,46.814L272.76,51.082L268.49,51.082Z" style="fill:none;stroke:#7AC36A;stroke-width:0.5" />
<path d="M270.69,46.151L274.96,46.151L274.96,50.419L270.69,50.419Z" style="fill:none;stroke:#7AC36A;stroke-width:0.5" />
<path d="M272.89,46.106L277.16,46.106L277.16,50.374L272.89,50.374Z" style="fill:none;stroke:#7AC36A;stroke-width:0.5" />
<path d="M275.09,46.455L279.36,46.455L279.36,50.723L275.09,50.723Z" style="fill:none;stroke:#7AC36A;stroke-width:0.5" />
<path d="M277.29,46.792L281.56,46.792L281.56,51.059L277.29,51.059Z" style="fill:none;stroke:#7AC36A;stroke-width:0.5" />
<path d="M279.49,46.818L283.76,46.818L283.76,51.086L279.49,51.086Z" style="fill:none;stroke:#7AC36A;stroke-width:0.5" />
<path d="M281.7,46.539L285.96,46.539L285.96,50.807L281.7,50.807Z" style="fill:none;stroke:#7AC36A;stroke-width:0.5" />
<path d="M283.9,46.239L288.16,46.239L288.16,50.507L283.9,50.507Z" style="fill:none;stroke:#7AC36A;stroke-width:0.5" />
<path d="M286.1,46.271L290.37,46.271L290.37,50.539L286.1,50.539Z" style="fill:none;stroke:#7AC36A;stroke-width:0.5" />
<path d="M288.3,46.805L292.57,46.805L292.57,51.073L288.3,51.073Z" style="fill:none;stroke:#7AC36A;stroke-width:0.5" />
<path d="M290.5,47.704L294.77,47.704L294.77,51.972L290.5,51.972Z" style="fill:none;stroke:#7AC36A;stroke-width:0.5" />
<path d="M292.7,48.599L296.97,48.599L296.97,52.867L292.7,52.867Z" style="fill:none;stroke:#7AC36A;stroke-width:0.5" />
<path d="M294.9,49.112L299.17,49.112L299.17,53.38L294.9,53.38Z" style="fill:none;stroke:#7AC36A;stroke-width:0.5" />
<path d="M297.1,49.071L301.37,49.071L301.37,53.339L297.1,53.339Z" style="fill:none;stroke:#7AC36A;stroke-width:0.5" />
<path d="M299.3,48.591L303.57,48.591L303.57,52.859L299.3,52.859Z" style="fill:none;stroke:#7AC36A;stroke-width:0.5" />
<path d="M301.5,47.979L305.77,47.979L305.77,52.247L301.5,52.247Z" style="fill:none;stroke:#7AC36A;stroke-width:0.5" />
<path d="M303.7,47.532L307.97,47.532L307.97,51.8L303.7,51.8Z" style="fill:none;stroke:#7AC36A;stroke-width:0.5" />
<path d="M305.91,47.361L310.17,47.361L310.17,51.629L305.91,51.629Z" style="fill:none;stroke:#7AC36A;stroke-width:0.5" />
<path d="M308.11,47.353L312.37,47.353L312.37,51.621L308.11,51.621Z" style="fill:none;stroke:#7AC36A;stroke-width:0.5" />
<path d="M310.31,47.274L314.58,47.274L314.58,51.542L310.31,51.542Z" style="fill:none;stroke:#7AC36A;stroke-width:0.5" />
<path d="M312.51,46.956L316.78,46.956L316.78,51.223L312.51,51.223Z" style="fill:none;stroke:#7AC36A;stroke-width:0.5" />
<path d="M314.71,46.428L318.98,46.428L318.98,50.696L314.71,50.696Z" style="fill:none;stroke:#7AC36A;stroke-width:0.5" />
<path d="M316.91,45.933L321.18,45.933L321.18,50.201L316.91,50.201Z" style="fill:none;stroke:#7AC36A;stroke-width:0.5" />
<path d="M319.11,45.796L323.38,45.796L323.38,50.063L319.11,50.063Z" style="fill:none;stroke:#7AC36A;stroke-width:0.5" />
<path d="M321.31,46.239L325.58,46.239L325.58,50.507L321.31,50.507Z" style="fill:none;stroke:#7AC36A;stroke-width:0.5" />
<path d="M323.51,47.243L327.78,47.243L327.78,51.511L323.51,51.511Z" style="fill:none;stroke:#7AC36A;stroke-width:0.5" />
<path d="M325.71,48.521L329.98,48.521L329.98,52.788L325.71,52.788Z" style="fill:none;stroke:#7AC36A;stroke-width:0.5" />
<path d="M327.91,49.635L332.18,49.635L332.18,53.903L327.91,53.903Z" style="fill:none;stroke:#7AC36A;stroke-width:0.5" />
<path d="M330.12,50.189L334.38,50.189L334.38,54.456L330.12,54.456Z" style="fill:none;stroke:#7AC36A;stroke-width:0.5" />
<path d="M332.32,49.995L336.58,49.995L336.58,54.263L332.32,54.263Z" style="fill:none;stroke:#7AC36A;stroke-width:0.5" />
<path d="M334.52,49.155L338.79,49.155L338.79,53.423L334.52,53.423Z" style="fill:none;stroke:#7AC36A;stroke-width:0.5" />
<path d="M336.72,48.005L340.99,48.005L340.99,52.273L336.72,52.273Z" style="fill:none;stroke:#7AC36A;stroke-width:0.5" />
<path d="M338.92,46.971L343.19,46.971L343.19,51.239L338.92,51.239Z" style="fill:none;stroke:#7AC36A;stroke-width:0.5" />
<path d="M341.12,46.394L345.39,46.394L345.39,50.662L341.12,50.662Z" style="fill:none;stroke:#7AC36A;stroke-width:0.5" />
<path d="M343.32,46.404L347.59,46.404L347.59,50.672L343.32,50.672Z" style="fill:none;stroke:#7AC36A;stroke-width:0.5" />
<path d="M345.52,46.889L349.79,46.889L349.79,51.157L345.52,51.157Z" style="fill:none;stroke:#7AC36A;stroke-width:0.5" />
<path d="M347.72,47.567L351.99,47.567L351.99,51.835L347.72,51.835Z" style="fill:none;stroke:#7AC36A;stroke-width:0.5" />
<path d="M349.92,48.109L354.19,48.109L354.19,52.377L349.92,52.377Z" style="fill:none;stroke:#7AC36A;stroke-width:0.5" />
<path d="M352.12,48.275L356.39,48.275L356.39,52.542L352.12,52.542Z" style="fill:none;stroke:#7AC36A;stroke-width:0.5" />
<path d="M354.33,47.999L358.59,47.999L358.59,52.267L354.33,52.267Z" style="fill:none;stroke:#7AC36A;stroke-width:0.5" />
<path d="M356.53,47.405L360.79,47.405L360.79,51.673L356.53,51.673Z" style="fill:none;stroke:#7AC36A;stroke-width:0.5" />
<path d="M358.73,46.742L363,46.742L363,51.01L358.73,51.01Z" style="fill:none;stroke:#7AC36A;stroke-width:0.5" />
<path d="M360.93,46.295L365.2,46.295L365.2,50.563L360.93,50.563Z" style="fill:none;stroke:#7AC36A;stroke-width:0.5" />
<path d="M363.13,46.276L367.4,46.276L367.4,50.543L363.13,50.543Z" style="fill:none;stroke:#7AC36A;stroke-width:0.5" />
<path d="M365.33,46.756L369.6,46.756L369.6,51.024L365.33,51.024Z" style="fill:none;stroke:#7AC36A;stroke-width:0.5" />
<path d="M367.53,47.652L371.8,47.652L371.8,51.919L367.53,51.919Z" style="fill:none;stroke:#7AC36A;stroke-width:0.5" />
<path d="M369.73,48.748L374,48.748L374,53.016L369.73,53.016Z" style="fill:none;stroke:#7AC36A;stroke-width:0.5" />
<path d="M371.93,49.773L376.2,49.773L376.2,54.041L371.93,54.041Z" style="fill:none;stroke:#7AC36A;stroke-width:0.5" />
<path d="M374.13,50.473L378.4,50.473L378.4,54.741L374.13,54.741Z" style="fill:none;stroke:#7AC36A;stroke-width:0.5" />
<path d="M376.33,50.68L380.6,50.68L380.6,54.948L376.33,54.948Z" style="fill:none;stroke:#7AC36A;stroke-width:0.5" />
<path d="M378.54,50.352L382.8,50.352L382.8,54.62L378.54,54.62Z" style="fill:none;stroke:#7AC36A;stroke-width:0.5" />
<path d="M380.74,49.575L385,49.575L385,53.842L380.74,53.842Z" style="fill:none;stroke:#7AC36A;stroke-width:0.5" />
<path d="M382.94,48.536L387.21,48.536L387.21,52.804L382.94,52.804Z" style="fill:none;stroke:#7AC36A;stroke-width:0.5" />
<path d="M385.14,47.479L389.41,47.479L389.41,51.747L385.14,51.747Z" style="fill:none;stroke:#7AC36A;stroke-width:0.5" />
<path d="M387.34,46.65L391.61,46.65L391.61,50.918L387.34,50.918Z" style="fill:none;stroke:#7AC36A;stroke-width:0.5" />
<path d="M389.54,46.248L393.81,46.248L393.81,50.515L389.54,50.515Z" style="fill:none;stroke:#7AC36A;stroke-width:0.5" />
<path d="M391.74,46.392L396.01,46.392L396.01,50.66L391.74,50.66Z" style="fill:none;stroke:#7AC36A;stroke-width:0.5" />
<path d="M393.94,47.113L398.21,47.113L398.21,51.38L393.94,51.38Z" style="fill:none;stroke:#7AC36A;stroke-width:0.5" />
<path d="M396.14,48.348L400.41,48.348L400.41,52.616L396.14,52.616Z" style="fill:none;stroke:#7AC36A;stroke-width:0.5" />
<path d="M398.34,49.969L402.61,49.969L402.61,54.237L398.34,54.237Z" style="fill:none;stroke:#7AC36A;stroke-width:0.5" />
<path d="M400.55,51.801L404.81,51.801L404.81,56.069L400.55,56.069Z" style="fill:none;stroke:#7AC36A;stroke-width:0.5" />
<path d="M402.75,53.657L407.01,53.657L407.01,57.925L402.75,57.925Z" style="fill:none;stroke:#7AC36A;stroke-width:0.5" />
<path d="M404.95,55.364L409.21,55.364L409.21,59.631L404.95,59.631Z" style="fill:none;stroke:#7AC36A;stroke-width:0.5" />
<path d="M407.15,56.777L411.42,56.777L411.42,61.044L407.15,61.044Z" style="fill:none;stroke:#7AC36A;stroke-width:0.5" />
<path d="M409.35,57.799L413.62,57.799L413.62,62.067L409.35,62.067Z" style="fill:none;stroke:#7AC36A;stroke-width:0.5" />
<path d="M411.55,58.382L415.82,58.382L415.82,62.65L411.55,62.65Z" style="fill:none;stroke:#7AC36A;stroke-width:0.5" />
<path d="M413.75,58.523L418.02,58.523L418.02,62.79L413.75,62.79Z" style="fill:none;stroke:#7AC36A;stroke-width:0.5" />
<path d="M415.95,58.257L420.22,58.257L420.22,62.525L415.95,62.525Z" style="fill:none;stroke:#7AC36A;stroke-width:0.5" />
<path d="M418.15,57.649L422.42,57.649L422.42,61.917L418.15,61.917Z" style="fill:none;stroke:#7AC36A;stroke-width:0.5" />
<path d="M420.35,56.781L424.62,56.781L424.62,61.048L420.35,61.048Z" style="fill:none;stroke:#7AC36A;stroke-width:0.5" />
<path d="M422.55,55.739L426.82,55.739L426.82,60.006L422.55,60.006Z" style="fill:none;stroke:#7AC36A;stroke-width:0.5" />
<path d="M424.76,54.607L429.02,54.607L429.02,58.875L424.76,58.875Z" style="fill:none;stroke:#7AC36A;stroke-width:0.5" />
<path d="M426.96,53.461L431.22,53.461L431.22,57.729L426.96,57.729Z" style="fill:none;stroke:#7AC36A;stroke-width:0.5" />
<path d="M429.16,52.362L433.42,52.362L433.42,56.63L429.16,56.63Z" style="fill:none;stroke:#7AC36A;stroke-width:0.5" />
<path d="M431.36,51.354L435.63,51.354L435.63,55.621L431.36,55.621Z" style="fill:none;stroke:#7AC36A;stroke-width:0.5" />
<path d="M433.56,50.466L437.83,50.466L437.83,54.733L433.56,54.733Z" style="fill:none;stroke:#7AC36A;stroke-width:0.5" />
<path d="M435.76,49.712L440.03,49.712L440.03,53.98L435.76,53.98Z" style="fill:none;stroke:#7AC36A;stroke-width:0.5" />
<path d="M437.96,49.096L442.23,49.096L442.23,53.363L437.96,53.363Z" style="fill:none;stroke:#7AC36A;stroke-width:0.5" />
<path d="M440.16,48.609L444.43,48.609L444.43,52.877L440.16,52.877Z" style="fill:none;stroke:#7AC36A;stroke-width:0.5" />
<path d="M442.36,48.241L446.63,48.241L446.63,52.509L442.36,52.509Z" style="fill:none;stroke:#7AC36A;stroke-width:0.5" />
<path d="M444.56,47.976L448.83,47.976L448.83,52.244L444.56,52.244Z" style="fill:none;stroke:#7AC36A;stroke-width:0.5" />
<path d="M446.76,47.799L451.03,47.799L451.03,52.067L446.76,52.067Z" style="fill:none;stroke:#7AC36A;stroke-width:0.5" />
<path d="M448.97,47.698L453.23,47.698L453.23,51.966L448.97,51.966Z" style="fill:none;stroke:#7AC36A;stroke-width:0.5" />
<path d="M451.17,47.666L455.43,47.666L455.43,51.933L451.17,51.933Z" style="fill:none;stroke:#7AC36A;stroke-width:0.5" />
<path d="M440.8,324.62L460.8,324.62" style="fill:none;stroke:#F15A60;stroke-width:1.5" />
<text x="405.15" y="-322.14" transform="scale(1, -1)"
	style="font-family:Liberation Serif;font-variant:normal;font-weight:normal;font-style:normal;font-size:12px">boxcar</text>
<path d="M440.8,314.44L460.8,314.44" style="fill:none;stroke:#7AC36A;stroke-dasharray:6,2" />
<path d="M448.67,312.31L452.93,312.31L452.93,316.57L448.67,316.57Z" style="fill:none;stroke:#7AC36A;stroke-width:0.5" />
<text x="406.48" y="-311.95" transform="scale(1, -1)"
	style="font-family:Liberation Serif;font-variant:normal;font-weight:normal;font-style:normal;font-size:12px">flattop</text>
</g>
</svg>
